<?xml version="1.0" standalone="no"?><!DOCTYPE svg PUBLIC "-//W3C//DTD SVG 1.1//EN" "http://www.w3.org/Graphics/SVG/1.1/DTD/svg11.dtd"><svg t="1638027052635" class="icon" viewBox="0 0 1024 1024" version="1.1" xmlns="http://www.w3.org/2000/svg" p-id="3543" width="256" height="256" xmlns:xlink="http://www.w3.org/1999/xlink"><defs><style type="text/css"></style></defs><path d="M514.226087 527.582609m-465.252174 0a465.252174 465.252174 0 1 0 930.504348 0 465.252174 465.252174 0 1 0-930.504348 0Z" fill="#EEEEFC" p-id="3544"></path><path d="M514.226087 84.591304c244.26407 0 442.991304 198.727235 442.991304 442.991305S758.490157 970.573913 514.226087 970.573913 71.234783 771.846678 71.234783 527.582609 269.962017 84.591304 514.226087 84.591304zM26.713043 527.582609C26.713043 796.400417 245.41273 1015.095652 514.226087 1015.095652c268.817809 0 487.513043-218.695235 487.513043-487.513043C1001.73913 258.769252 783.043896 40.069565 514.226087 40.069565 245.41273 40.069565 26.713043 258.769252 26.713043 527.582609z" fill="#6E6E96" p-id="3545"></path><path d="M514.226087 527.582609m-345.800348 0a345.800348 345.800348 0 1 0 691.600696 0 345.800348 345.800348 0 1 0-691.600696 0Z" fill="#00CCC6" p-id="3546"></path><path d="M514.226087 204.04313c178.398609 0 323.539478 145.14087 323.539478 323.539479s-145.14087 323.539478-323.539478 323.539478-323.539478-145.14087-323.539478-323.539478 145.14087-323.539478 323.539478-323.539479zM146.16487 527.582609c0 202.947896 165.10887 368.061217 368.061217 368.061217 202.947896 0 368.061217-165.113322 368.061217-368.061217s-165.113322-368.061217-368.061217-368.061218-368.061217 165.113322-368.061217 368.061218z" fill="#6E6E96" p-id="3547"></path><path d="M632.061774 640.98393c-66.791513 100.075965-166.74727 115.168835-238.235826 88.064 0.997287-0.436313 115.204452-49.668452 140.541774-222.390539 0 0-53.061009 124.384835-193.834296 187.952974-47.059478-55.781287-8.655026-161.489252 40.443548-235.074782 66.7648-100.075965 239.620452-147.7632 239.620452-147.7632s91.233948 209.617252 11.464348 329.211547z" fill="#51706F" opacity=".5" p-id="3548"></path><path d="M514.226087 62.330435C257.273322 62.330435 48.973913 270.629843 48.973913 527.582609S257.273322 992.834783 514.226087 992.834783 979.478261 784.535374 979.478261 527.582609 771.178852 62.330435 514.226087 62.330435z m-8.904348 877.078261C265.581078 939.408696 71.234783 745.0624 71.234783 505.321739S265.581078 71.234783 505.321739 71.234783 939.408696 265.581078 939.408696 505.321739 745.0624 939.408696 505.321739 939.408696z" fill="#6E6E96" opacity=".15" p-id="3549"></path><path d="M509.773913 186.385809c-190.980452 0-345.800348 154.819896-345.800348 345.795895 0 190.980452 154.819896 345.800348 345.800348 345.800348s345.800348-154.815443 345.800348-345.800348c0-190.976-154.819896-345.795896-345.800348-345.795895z m16.7936 672.981704c-164.939687 0-298.651826-133.707687-298.651826-298.651826 0-164.935235 133.707687-298.647374 298.651826-298.647374 164.935235 0 298.647374 133.707687 298.647374 298.647374 0.004452 164.944139-133.712139 298.651826-298.647374 298.651826z" fill="#6E6E96" opacity=".15" p-id="3550"></path></svg>